<svg width="783" height="93" viewBox="0 0 783 93" fill="none" xmlns="http://www.w3.org/2000/svg">
<path d="M731.398 75.264H697.862L692.486 91.136H669.574L702.086 1.28003H727.43L759.942 91.136H736.774L731.398 75.264ZM725.766 58.368L714.63 25.472L703.622 58.368H725.766Z" fill="#E8E6E3"/>
<path d="M622.508 73.216H661.164V91.136H597.676V74.496L636.076 19.2H597.676V1.28003H661.164V17.92L622.508 73.216Z" fill="#E8E6E3"/>
<path d="M551.85 18.816V36.992H581.162V53.888H551.85V73.6H585.002V91.136H529.962V1.28003H585.002V18.816H551.85Z" fill="#E8E6E3"/>
<path d="M492.286 91.136L473.598 57.216H468.35V91.136H446.462V1.28003H483.198C490.281 1.28003 496.297 2.51736 501.246 4.99203C506.281 7.46669 510.035 10.88 512.51 15.232C514.985 19.4987 516.222 24.2774 516.222 29.568C516.222 35.5414 514.515 40.8747 511.102 45.568C507.774 50.2614 502.825 53.5894 496.254 55.552L516.99 91.136H492.286ZM468.35 41.728H481.918C485.929 41.728 488.915 40.7467 490.878 38.784C492.926 36.8214 493.95 34.048 493.95 30.464C493.95 27.0507 492.926 24.3627 490.878 22.4C488.915 20.4374 485.929 19.456 481.918 19.456H468.35V41.728Z" fill="#E8E6E3"/>
<path d="M377.716 1.28003V55.04C377.716 60.416 379.039 64.5547 381.684 67.456C384.329 70.3574 388.212 71.808 393.332 71.808C398.452 71.808 402.377 70.3574 405.108 67.456C407.839 64.5547 409.204 60.416 409.204 55.04V1.28003H431.092V54.912C431.092 62.9334 429.385 69.7174 425.972 75.264C422.559 80.8107 417.951 84.992 412.148 87.808C406.431 90.624 400.031 92.032 392.948 92.032C385.865 92.032 379.508 90.6667 373.876 87.936C368.329 85.12 363.935 80.9387 360.692 75.392C357.449 69.76 355.828 62.9334 355.828 54.912V1.28003H377.716Z" fill="#E8E6E3"/>
<path d="M345.227 1.28003V18.816H321.419V91.136H299.531V18.816H275.723V1.28003H345.227Z" fill="#E8E6E3"/>
<path d="M234.349 92.032C227.778 92.032 221.89 90.9653 216.685 88.832C211.48 86.6987 207.298 83.5413 204.141 79.36C201.069 75.1787 199.448 70.144 199.277 64.256H222.573C222.914 67.584 224.066 70.144 226.029 71.936C227.992 73.6427 230.552 74.496 233.709 74.496C236.952 74.496 239.512 73.7707 241.389 72.32C243.266 70.784 244.205 68.6933 244.205 66.048C244.205 63.8293 243.437 61.9947 241.901 60.544C240.45 59.0933 238.616 57.8987 236.397 56.96C234.264 56.0213 231.192 54.9547 227.181 53.76C221.378 51.968 216.642 50.176 212.973 48.384C209.304 46.592 206.146 43.9467 203.501 40.448C200.856 36.9493 199.533 32.384 199.533 26.752C199.533 18.3893 202.562 11.8613 208.621 7.168C214.68 2.38933 222.573 0 232.301 0C242.2 0 250.178 2.38933 256.237 7.168C262.296 11.8613 265.538 18.432 265.965 26.88H242.285C242.114 23.9787 241.048 21.7173 239.085 20.096C237.122 18.3893 234.605 17.536 231.533 17.536C228.888 17.536 226.754 18.2613 225.133 19.712C223.512 21.0773 222.701 23.0827 222.701 25.728C222.701 28.6293 224.066 30.8907 226.797 32.512C229.528 34.1333 233.794 35.8827 239.597 37.76C245.4 39.7227 250.093 41.6 253.677 43.392C257.346 45.184 260.504 47.7867 263.149 51.2C265.794 54.6133 267.117 59.008 267.117 64.384C267.117 69.504 265.794 74.1547 263.149 78.336C260.589 82.5173 256.834 85.8453 251.885 88.32C246.936 90.7947 241.09 92.032 234.349 92.032Z" fill="#E8E6E3"/>
<path d="M143.708 92.032C135.26 92.032 127.495 90.0693 120.412 86.144C113.415 82.2187 107.825 76.7573 103.644 69.76C99.548 62.6773 97.5 54.7413 97.5 45.952C97.5 37.1627 99.548 29.2693 103.644 22.272C107.825 15.2747 113.415 9.81333 120.412 5.888C127.495 1.96267 135.26 0 143.708 0C152.156 0 159.879 1.96267 166.876 5.888C173.959 9.81333 179.505 15.2747 183.516 22.272C187.612 29.2693 189.66 37.1627 189.66 45.952C189.66 54.7413 187.612 62.6773 183.516 69.76C179.42 76.7573 173.873 82.2187 166.876 86.144C159.879 90.0693 152.156 92.032 143.708 92.032ZM143.708 72.064C150.876 72.064 156.593 69.6747 160.86 64.896C165.212 60.1173 167.388 53.8027 167.388 45.952C167.388 38.016 165.212 31.7013 160.86 27.008C156.593 22.2293 150.876 19.84 143.708 19.84C136.455 19.84 130.652 22.1867 126.3 26.88C122.033 31.5733 119.9 37.9307 119.9 45.952C119.9 53.888 122.033 60.2453 126.3 65.024C130.652 69.7173 136.455 72.064 143.708 72.064Z" fill="#E8E6E3"/>
<path d="M0 46.08C0 37.2053 1.92 29.312 5.76 22.4C9.6 15.4027 14.9333 9.98398 21.76 6.14398C28.672 2.21865 36.48 0.255981 45.184 0.255981C55.8507 0.255981 64.9813 3.07198 72.576 8.70398C80.1707 14.336 85.248 22.016 87.808 31.744H63.744C61.952 27.9893 59.392 25.1307 56.064 23.168C52.8213 21.2053 49.1093 20.224 44.928 20.224C38.1867 20.224 32.7253 22.5707 28.544 27.264C24.3627 31.9573 22.272 38.2293 22.272 46.08C22.272 53.9307 24.3627 60.2026 28.544 64.896C32.7253 69.5893 38.1867 71.936 44.928 71.936C49.1093 71.936 52.8213 70.9547 56.064 68.992C59.392 67.0293 61.952 64.1707 63.744 60.416H87.808C85.248 70.144 80.1707 77.824 72.576 83.456C64.9813 89.0027 55.8507 91.776 45.184 91.776C36.48 91.776 28.672 89.856 21.76 86.016C14.9333 82.0907 9.6 76.672 5.76 69.76C1.92 62.848 0 54.9547 0 46.08Z" fill="#E8E6E3"/>
<path d="M774.359 79.0103C773.234 79.4577 772.228 79.7611 771.341 79.9203C770.465 80.0839 769.686 80.1454 769.006 80.1049C768.326 80.0643 767.74 79.9442 767.248 79.7444C766.76 79.5519 766.348 79.3204 766.014 79.0499C765.679 78.7794 765.414 78.4938 765.219 78.1931C765.017 77.8953 764.866 77.6229 764.768 77.3761L764.066 75.0702C765.584 74.5756 767.101 74.0565 768.617 73.5126C770.14 72.9659 771.663 72.3894 773.188 71.7832C774.342 71.3242 775.48 70.855 776.601 70.3756C777.722 69.8962 778.837 69.4024 779.946 68.8939C780.03 69.0624 780.109 69.2287 780.183 69.3928C780.256 69.5568 780.325 69.7187 780.388 69.8784C780.867 71.0835 781.05 72.1459 780.937 73.0654C780.83 73.9821 780.491 74.7981 779.918 75.5136C779.355 76.2335 778.592 76.8732 777.629 77.4327C776.676 77.9965 775.586 78.5224 774.359 79.0103ZM773.77 76.6719C774.126 76.5305 774.5 76.3731 774.894 76.1998C775.295 76.0236 775.684 75.8307 776.064 75.6212C776.445 75.4188 776.806 75.1954 777.146 74.9509C777.486 74.7064 777.782 74.4459 778.034 74.1693C778.292 73.8899 778.49 73.5929 778.625 73.2783C778.764 72.971 778.818 72.6426 778.788 72.2929C777.972 72.5669 777.176 72.8373 776.399 73.1041C775.633 73.3752 774.875 73.6472 774.126 73.9198C773.377 74.1925 772.633 74.4674 771.894 74.7444C771.165 75.0258 770.434 75.3123 769.701 75.6039C769.221 75.7944 768.735 75.9878 768.241 76.1841C767.755 76.3775 767.261 76.5825 766.758 76.7991C766.927 77.1186 767.17 77.3585 767.486 77.5187C767.802 77.6789 768.156 77.7776 768.549 77.8147C768.953 77.8561 769.381 77.8454 769.835 77.7825C770.3 77.7239 770.761 77.6371 771.22 77.522C771.686 77.4039 772.136 77.267 772.57 77.1112C773.007 76.9627 773.407 76.8163 773.77 76.6719Z" fill="#1E1E1E"/>
<path d="M779.388 67.4892C777.891 67.975 776.414 68.4783 774.956 68.9991C773.506 69.517 772.059 70.0631 770.614 70.6376C769.489 71.085 768.384 71.5412 767.299 72.0062C766.217 72.4784 765.137 72.9752 764.058 73.4968L763.249 71.2711C764.077 70.6055 764.899 69.9463 765.716 69.2937C766.543 68.6454 767.362 68.0001 768.175 67.3576C768.987 66.7151 769.793 66.0668 770.592 65.4127C771.394 64.7658 772.188 64.1095 772.974 63.4438C771.088 64.219 769.21 65.0037 767.34 65.7978C765.48 66.5963 763.638 67.4296 761.814 68.2978L760.836 65.7737C763.186 64.9399 765.53 64.0583 767.868 63.1288C769.305 62.5572 770.722 61.9769 772.119 61.3878C773.516 60.7987 774.914 60.1922 776.314 59.5684L777.461 62.6434C776.011 63.6487 774.546 64.6895 773.065 65.7659C771.585 66.8422 770.136 67.9353 768.72 69.0452C770.34 68.342 771.95 67.6133 773.551 66.8593C775.161 66.1096 776.734 65.362 778.271 64.6166L779.388 67.4892Z" fill="#1E1E1E"/>
<path d="M765.475 61.2676C765.4 61.0368 765.32 60.8038 765.235 60.5686C765.15 60.3334 765.061 60.0997 764.969 59.8674C764.917 59.7367 764.859 59.6002 764.794 59.4579C764.732 59.3228 764.673 59.1864 764.618 59.0484L760.713 60.5507C760.965 61.1402 761.223 61.7058 761.489 62.2475C761.758 62.7964 762.065 63.3679 762.41 63.962L760.134 64.867C759.987 64.4547 759.841 64.0547 759.695 63.667C759.552 63.2866 759.406 62.9077 759.256 62.5302C759.031 61.964 758.801 61.4079 758.567 60.8619C758.326 60.3188 758.07 59.7605 757.8 59.1869C759.176 58.7153 760.532 58.235 761.868 57.7459C763.214 57.2611 764.562 56.7503 765.912 56.2134C767.204 55.6995 768.479 55.1719 769.735 54.6304C771.001 54.0933 772.264 53.5279 773.524 52.9342C773.8 53.8168 774.092 54.6465 774.401 55.4233C774.597 55.9169 774.803 56.4026 775.018 56.8804C775.243 57.3625 775.489 57.8743 775.755 58.416L773.25 59.4119C773.151 58.9301 773.035 58.4591 772.903 57.9989C772.773 57.546 772.622 57.1018 772.448 56.6662L772.28 56.2415C771.343 56.5298 770.419 56.8384 769.507 57.1673C768.599 57.5035 767.688 57.8447 766.774 58.1911C766.835 58.3856 766.903 58.5772 766.978 58.766C767.056 58.962 767.135 59.1616 767.216 59.3649C767.282 59.5318 767.35 59.7024 767.419 59.8767C767.489 60.0509 767.567 60.2259 767.653 60.4016L765.475 61.2676Z" fill="#1E1E1E"/>
<path d="M765.853 54.4463L763.849 55.2431L761.45 49.2734L763.639 48.4031L765.853 54.4463Z" fill="#1E1E1E"/>
<path d="M768.118 45.9662C768.04 45.7281 767.944 45.4552 767.83 45.1474C767.719 44.8468 767.596 44.526 767.46 44.1848C766.765 44.4024 766.047 44.6374 765.306 44.8898C764.576 45.1466 763.833 45.4127 763.076 45.6883C762.327 45.9609 761.574 46.2438 760.816 46.5367C760.065 46.8268 759.323 47.1176 758.59 47.4092C757.755 47.7412 756.947 48.0667 756.166 48.3857C755.395 48.7091 754.654 49.0333 753.942 49.3583L753.02 47.0388C754.28 46.6134 755.614 46.1417 757.023 45.6238C758.431 45.1058 759.843 44.5654 761.258 44.0024C762.18 43.6358 763.076 43.267 763.946 42.8959C764.816 42.5248 765.664 42.1624 766.49 41.8086C766.351 41.4602 766.216 41.1313 766.085 40.822C765.954 40.5128 765.832 40.2376 765.719 39.9966L768.003 39.1133C768.086 39.3833 768.184 39.6846 768.3 40.017C768.422 40.3466 768.551 40.6907 768.685 41.0493C768.822 41.4152 768.962 41.7883 769.105 42.1687C769.255 42.5462 769.402 42.9164 769.547 43.2794C769.691 43.6424 769.827 43.9836 769.954 44.303C770.083 44.6297 770.206 44.9172 770.322 45.1655L768.118 45.9662Z" fill="#1E1E1E"/>
<path d="M767.757 38.2403C766.26 38.7261 764.783 39.2294 763.326 39.7502C761.875 40.2681 760.428 40.8142 758.983 41.3887C757.858 41.8361 756.753 42.2923 755.668 42.7573C754.587 43.2295 753.506 43.7263 752.427 44.2479L751.618 42.0222C752.446 41.3566 753.269 40.6974 754.085 40.0448C754.912 39.3965 755.732 38.7512 756.544 38.1087C757.356 37.4662 758.162 36.8179 758.961 36.1638C759.763 35.5169 760.557 34.8606 761.344 34.1949C759.457 34.9701 757.579 35.7548 755.709 36.5489C753.849 37.3474 752.007 38.1807 750.183 39.0489L749.205 36.5248C751.555 35.691 753.899 34.8094 756.237 33.8799C757.674 33.3083 759.091 32.728 760.488 32.1389C761.885 31.5498 763.283 30.9433 764.683 30.3195L765.83 33.3945C764.38 34.3998 762.915 35.4406 761.435 36.517C759.954 37.5933 758.506 38.6864 757.089 39.7963C758.709 39.0931 760.32 38.3644 761.92 37.6104C763.53 36.8607 765.104 36.1131 766.64 35.3677L767.757 38.2403Z" fill="#1E1E1E"/>
<path d="M756.074 32.3933C754.615 32.9735 753.337 33.3641 752.24 33.5649C751.146 33.7731 750.211 33.8336 749.437 33.7464C748.669 33.6563 748.048 33.4368 747.573 33.0876C747.105 32.7356 746.766 32.2946 746.555 31.7646C746.344 31.2347 746.281 30.684 746.365 30.1126C746.456 29.5383 746.744 28.9527 747.23 28.356C747.716 27.7593 748.43 27.1558 749.373 26.5455C750.319 25.9424 751.539 25.3436 753.035 24.7489C754.537 24.1514 755.85 23.7427 756.974 23.5231C758.107 23.3077 759.07 23.2444 759.862 23.3331C760.661 23.4188 761.298 23.6363 761.773 23.9854C762.256 24.3317 762.602 24.7698 762.813 25.2997C763.024 25.8297 763.076 26.3847 762.971 26.9648C762.872 27.542 762.564 28.1311 762.047 28.7321C761.529 29.3331 760.783 29.9409 759.808 30.5555C758.843 31.1745 757.599 31.7871 756.074 32.3933ZM755.109 29.9649C756.249 29.5117 757.196 29.0929 757.951 28.7086C758.706 28.3242 759.301 27.97 759.736 27.6459C760.18 27.3262 760.478 27.0395 760.63 26.786C760.781 26.5324 760.819 26.3112 760.744 26.1225C760.666 25.9265 760.48 25.7861 760.186 25.7013C759.901 25.621 759.487 25.6136 758.941 25.6792C758.405 25.7492 757.728 25.9053 756.907 26.1473C756.095 26.3865 755.126 26.7298 754 27.1773C752.882 27.6218 751.957 28.0319 751.223 28.4077C750.497 28.7805 749.926 29.121 749.511 29.4291C749.105 29.7417 748.838 30.0204 748.708 30.2653C748.581 30.5175 748.557 30.7416 748.635 30.9376C748.71 31.1263 748.882 31.2638 749.152 31.3499C749.429 31.4332 749.824 31.4441 750.338 31.3828C750.862 31.3258 751.516 31.1835 752.3 30.9559C753.083 30.7283 754.02 30.398 755.109 29.9649Z" fill="#1E1E1E"/>
<path d="M756.051 22.5658C755.565 22.7592 755.056 22.9068 754.525 23.0088C754.004 23.1151 753.474 23.1575 752.936 23.1361C752.405 23.1118 751.876 23.0193 751.35 22.8587C750.831 22.6952 750.327 22.4417 749.837 22.0983C748.96 22.9177 748.14 23.7611 747.375 24.6285C746.62 25.5003 745.92 26.4136 745.274 27.3683L744.039 24.7066L748.562 20.764C747.688 21.1452 746.824 21.5308 745.97 21.9207C745.116 22.3107 744.278 22.7072 743.454 23.1103L742.398 20.4533C744.092 19.9142 745.773 19.3424 747.441 18.7379C749.112 18.1407 750.783 17.5101 752.452 16.8461C753.418 16.4622 754.377 16.0724 755.329 15.6769C756.289 15.2784 757.25 14.8625 758.213 14.4293C758.482 14.7678 758.713 15.1259 758.905 15.5035C759.1 15.8884 759.253 16.2187 759.362 16.4946C759.44 16.6906 759.512 16.9352 759.578 17.2284C759.655 17.5259 759.692 17.8517 759.69 18.2057C759.687 18.5596 759.633 18.9302 759.526 19.3173C759.422 19.7117 759.232 20.0987 758.954 20.4782C758.686 20.8621 758.316 21.232 757.844 21.588C757.382 21.9483 756.784 22.2742 756.051 22.5658ZM750.318 20.0407C750.491 20.2659 750.685 20.4455 750.898 20.5794C751.121 20.7176 751.352 20.8233 751.591 20.8963C751.83 20.9693 752.07 21.0126 752.311 21.0262C752.555 21.047 752.791 21.0496 753.021 21.0341C753.55 20.9917 754.099 20.8702 754.666 20.6697C754.681 20.6639 754.767 20.6257 754.923 20.5549C755.09 20.4885 755.29 20.3881 755.522 20.2536C755.755 20.1192 756.002 19.9579 756.263 19.7699C756.528 19.5891 756.768 19.3799 756.985 19.1424C757.209 18.9021 757.386 18.6384 757.515 18.3514C757.645 18.0644 757.696 17.7584 757.667 17.4334C756.493 17.7995 755.329 18.1823 754.177 18.5818C753.034 18.9857 751.889 19.4157 750.742 19.8718L750.318 20.0407Z" fill="#1E1E1E"/>
<path d="M747.583 16.2726C747.508 16.0418 747.428 15.8088 747.343 15.5736C747.258 15.3384 747.169 15.1047 747.077 14.8724C747.028 14.7489 746.974 14.6233 746.915 14.4956C746.855 14.3678 746.801 14.2422 746.752 14.1188L740.874 16.6202C740.829 16.4446 740.771 16.2574 740.701 16.0585C740.626 15.8697 740.552 15.6846 740.48 15.5031C740.408 15.3216 740.34 15.151 740.276 14.9913C740.208 14.8417 740.146 14.7067 740.09 14.5862C740.028 14.4511 739.967 14.3197 739.908 14.1919C741.284 13.7203 742.64 13.24 743.976 12.7509C745.322 12.2662 746.67 11.7553 748.02 11.2184C749.312 10.7045 750.586 10.1769 751.842 9.6354C753.109 9.0983 754.372 8.53289 755.632 7.9392C755.908 8.82181 756.2 9.6515 756.509 10.4283C756.705 10.9219 756.911 11.4076 757.126 11.8854C757.351 12.3675 757.597 12.8794 757.863 13.421L755.358 14.417C755.259 13.9351 755.143 13.4641 755.011 13.0039C754.881 12.551 754.729 12.1068 754.556 11.6712L754.387 11.2465C753.551 11.5118 752.715 11.7981 751.879 12.1054C751.045 12.4199 750.197 12.749 749.333 13.0925L748.908 13.2614C748.966 13.4487 749.031 13.633 749.103 13.8145C749.175 13.996 749.249 14.1811 749.324 14.3699C749.39 14.5369 749.458 14.7075 749.527 14.8817C749.597 15.0559 749.675 15.2309 749.761 15.4066L747.583 16.2726Z" fill="#1E1E1E"/>
</svg>
