<svg width="400" height="66" viewBox="0 0 400 66" fill="none" xmlns="http://www.w3.org/2000/svg">
<mask id="mask0_21_45" style="mask-type:luminance" maskUnits="userSpaceOnUse" x="0" y="0" width="400" height="66">
<path d="M400 0H0V65.8595H400V0Z" fill="white"/>
</mask>
<g mask="url(#mask0_21_45)">
<path d="M0 38.3045C0 33.2072 0.938113 28.6737 2.81433 24.7038C4.69055 20.6848 7.29643 17.5726 10.6319 15.3671C14.0091 13.1126 17.8241 11.9854 22.0769 11.9854C27.2886 11.9854 31.7498 13.6027 35.4606 16.8374C39.1714 20.0722 41.6521 24.4832 42.9029 30.0705H31.1453C30.2697 27.914 29.0189 26.2722 27.3928 25.1449C25.8085 24.0176 23.9948 23.454 21.9518 23.454C18.658 23.454 15.9896 24.8018 13.9466 27.4974C11.9036 30.1931 10.8821 33.7954 10.8821 38.3045C10.8821 42.8135 11.9036 46.4159 13.9466 49.1115C15.9896 51.8071 18.658 53.155 21.9518 53.155C23.9948 53.155 25.8085 52.5913 27.3928 51.4641C29.0189 50.3368 30.2697 48.6949 31.1453 46.5384H42.9029C41.6521 52.1257 39.1714 56.5368 35.4606 59.7713C31.7498 62.9573 27.2886 64.5503 22.0769 64.5503C17.8241 64.5503 14.0091 63.4476 10.6319 61.2416C7.29643 58.9876 4.69055 55.8751 2.81433 51.9051C0.938113 47.9352 0 43.4017 0 38.3045Z" fill="#E8E6E3"/>
<path d="M70.2151 64.6988C66.087 64.6988 62.2929 63.5718 58.8324 61.3172C55.4135 59.0626 52.6827 55.9259 50.6397 51.907C48.6384 47.839 47.6378 43.2809 47.6378 38.2327C47.6378 33.1846 48.6384 28.651 50.6397 24.632C52.6827 20.6131 55.4135 17.4764 58.8324 15.2219C62.2929 12.9673 66.087 11.8401 70.2151 11.8401C74.3427 11.8401 78.1162 12.9673 81.5346 15.2219C84.9957 17.4764 87.7054 20.6131 89.6648 24.632C91.6665 28.651 92.667 33.1846 92.667 38.2327C92.667 43.2809 91.6665 47.839 89.6648 51.907C87.6638 55.9259 84.9535 59.0626 81.5346 61.3172C78.1162 63.5718 74.3427 64.6988 70.2151 64.6988ZM70.2151 53.2303C73.7173 53.2303 76.5108 51.8579 78.5956 49.1133C80.7216 46.3686 81.7848 42.7418 81.7848 38.2327C81.7848 33.6747 80.7216 30.0478 78.5956 27.3522C76.5108 24.6075 73.7173 23.2352 70.2151 23.2352C66.6708 23.2352 63.8356 24.5831 61.7092 27.2787C59.6248 29.9743 58.5821 33.6257 58.5821 38.2327C58.5821 42.7908 59.6248 46.4422 61.7092 49.1868C63.8356 51.8825 66.6708 53.2303 70.2151 53.2303Z" fill="#E8E6E3"/>
<path d="M114.502 64.6988C111.292 64.6988 108.415 64.0864 105.871 62.861C103.328 61.6356 101.285 59.8221 99.7427 57.421C98.2416 55.0194 97.4491 52.1275 97.3659 48.7457H108.748C108.915 50.6572 109.478 52.1275 110.437 53.1567C111.396 54.1372 112.646 54.627 114.189 54.627C115.773 54.627 117.024 54.2107 117.942 53.3773C118.859 52.4951 119.318 51.2943 119.318 49.775C119.318 48.5006 118.943 47.4469 118.192 46.6137C117.483 45.7805 116.587 45.0944 115.503 44.5552C114.461 44.0161 112.959 43.4034 111 42.7173C108.165 41.688 105.851 40.6588 104.058 39.6295C102.265 38.6003 100.722 37.081 99.4297 35.0715C98.1373 33.062 97.4908 30.4399 97.4908 27.2052C97.4908 22.402 98.9713 18.6526 101.931 15.957C104.892 13.2124 108.748 11.8401 113.502 11.8401C118.338 11.8401 122.236 13.2124 125.197 15.957C128.157 18.6526 129.741 22.4265 129.95 27.2787H118.379C118.296 25.6122 117.775 24.3135 116.816 23.3822C115.857 22.402 114.627 21.9119 113.126 21.9119C111.833 21.9119 110.791 22.3285 109.999 23.1617C109.207 23.9459 108.811 25.0977 108.811 26.617C108.811 28.2834 109.478 29.5822 110.812 30.5134C112.146 31.4446 114.231 32.4494 117.066 33.5277C119.902 34.6549 122.195 35.7332 123.946 36.7624C125.738 37.7917 127.281 39.2865 128.573 41.247C129.866 43.2074 130.512 45.7315 130.512 48.8192C130.512 51.7599 129.866 54.4313 128.573 56.8324C127.323 59.234 125.489 61.1459 123.07 62.567C120.652 63.988 117.796 64.6988 114.502 64.6988Z" fill="#E8E6E3"/>
<path d="M168.678 12.574V22.6458H157.045V64.1833H146.351V22.6458H134.718V12.574H168.678Z" fill="#E8E6E3"/>
<path d="M184.55 12.574V43.4512C184.55 46.5389 185.198 48.916 186.49 50.5824C187.783 52.2488 189.678 53.082 192.18 53.082C194.682 53.082 196.6 52.2488 197.934 50.5824C199.268 48.916 199.937 46.5389 199.937 43.4512V12.574H210.631V43.3777C210.631 47.9847 209.797 51.8812 208.13 55.0671C206.462 58.2525 204.209 60.6541 201.374 62.2714C198.58 63.8887 195.453 64.6979 191.992 64.6979C188.532 64.6979 185.427 63.9136 182.675 62.3449C179.965 60.7277 177.818 58.326 176.234 55.1406C174.649 51.9057 173.857 47.9847 173.857 43.3777V12.574H184.55Z" fill="#E8E6E3"/>
<path d="M240.53 64.1833L231.399 44.701H228.835V64.1833H218.141V12.574H236.09C239.55 12.574 242.49 13.2847 244.908 14.706C247.368 16.1273 249.202 18.0878 250.411 20.5873C251.621 23.0379 252.225 25.7826 252.225 28.8213C252.225 32.2521 251.391 35.3153 249.723 38.0109C248.097 40.7066 245.679 42.618 242.469 43.7453L252.6 64.1833H240.53ZM228.835 35.8054H235.464C237.424 35.8054 238.883 35.2418 239.842 34.1145C240.843 32.9872 241.343 31.3944 241.343 29.3359C241.343 27.3754 240.843 25.8315 239.842 24.7043C238.883 23.577 237.424 23.0134 235.464 23.0134H228.835V35.8054Z" fill="#E8E6E3"/>
<path d="M269.634 22.6458V33.0853H283.956V42.7895H269.634V54.1114H285.832V64.1833H258.94V12.574H285.832V22.6458H269.634Z" fill="#E8E6E3"/>
<path d="M304.158 53.8906H323.044V64.1833H292.024V54.626L310.788 22.8664H292.024V12.574H323.044V22.1312L304.158 53.8906Z" fill="#E8E6E3"/>
<path d="M334.808 3.68726H353.651V64.1849H334.808V3.68726Z" fill="#CB0002"/>
<path d="M349.139 15.6624L362.463 0L398.856 42.7783L385.532 58.4405L349.139 15.6624Z" fill="#CB0002"/>
<path d="M340.057 51.2273H341.022V55.8681H344.084V52.1003H345.048V55.8681H349.139V57.2616H340.057V51.2273Z" fill="#E8E6E3"/>
<path d="M349.139 43.9229L345.425 46.4654V48.1501H349.139V49.5439H340.057V46.0978C340.057 45.2911 340.175 44.6121 340.409 44.0608C340.644 43.4991 340.962 43.0805 341.36 42.8048C341.76 42.5291 342.217 42.3913 342.729 42.3913C343.354 42.3913 343.906 42.6057 344.383 43.0346C344.862 43.4531 345.178 44.0862 345.335 44.9337L349.139 42.2534V43.9229ZM344.475 48.1501V46.0978C344.475 45.3421 344.318 44.7754 344.005 44.3977C343.685 44.0199 343.259 43.831 342.729 43.831C342.19 43.831 341.773 44.0199 341.478 44.3977C341.183 44.7653 341.035 45.332 341.035 46.0978V48.1501H344.475Z" fill="#E8E6E3"/>
<path d="M349.231 35.386C349.231 36.3764 349.036 37.28 348.645 38.097C348.246 38.9138 347.694 39.5621 346.99 40.0421C346.279 40.5117 345.479 40.7466 344.593 40.7466C343.707 40.7466 342.912 40.5117 342.209 40.0421C341.497 39.5621 340.945 38.9138 340.554 38.097C340.155 37.28 339.955 36.3764 339.955 35.386C339.955 34.3853 340.155 33.4766 340.554 32.6598C340.945 31.8428 341.492 31.1995 342.196 30.7299C342.899 30.2602 343.699 30.0254 344.593 30.0254C345.488 30.0254 346.287 30.2602 346.99 30.7299C347.694 31.1995 348.246 31.8428 348.645 32.6598C349.036 33.4766 349.231 34.3853 349.231 35.386ZM348.202 35.386C348.202 34.6406 348.055 33.9717 347.759 33.3796C347.465 32.7771 347.043 32.3075 346.495 31.9705C345.948 31.6233 345.315 31.4498 344.593 31.4498C343.863 31.4498 343.23 31.6233 342.691 31.9705C342.144 32.3075 341.723 32.772 341.427 33.3643C341.132 33.9564 340.984 34.6303 340.984 35.386C340.984 36.1416 341.132 36.8154 341.427 37.4077C341.723 37.9999 342.144 38.4696 342.691 38.8168C343.23 39.1538 343.863 39.3223 344.593 39.3223C345.315 39.3223 345.948 39.1538 346.495 38.8168C347.043 38.4696 347.465 37.9999 347.759 37.4077C348.055 36.8052 348.202 36.1313 348.202 35.386Z" fill="#E8E6E3"/>
<path d="M349.139 19.7925V21.1863L341.908 26.7919H349.139V28.1857H340.044V26.7919L347.263 21.1863H340.044V19.7925H349.139Z" fill="#E8E6E3"/>
<path d="M340.057 10.8452H341.022V13.7553H349.139V15.149H341.022V18.0744H340.057V10.8452Z" fill="#E8E6E3"/>
<path d="M366.798 16.916L364.652 19.4394L366.992 22.1903L366.301 23.0025L363.961 20.2516L361.749 22.8509L364.365 25.9267L363.675 26.7389L360.219 22.6776L366.651 15.1182L370.107 19.1794L369.415 19.9916L366.798 16.916Z" fill="#E8E6E3"/>
<path d="M369.993 34.1656L369.154 33.18L370.896 23.2056L365.782 29.2163L364.944 28.2308L371.374 20.6714L372.213 21.6568L370.48 31.6206L375.585 25.6206L376.423 26.6062L369.993 34.1656Z" fill="#E8E6E3"/>
<path d="M379.842 30.6467C380.543 31.4698 381.016 32.3363 381.261 33.246C381.519 34.1557 381.541 35.0546 381.326 35.9426C381.117 36.838 380.684 37.6719 380.027 38.4445C379.369 39.217 378.66 39.726 377.898 39.9715C377.149 40.217 376.388 40.1881 375.614 39.8848C374.852 39.5816 374.12 39.0184 373.421 38.1953L371.421 35.8452L377.843 28.2966L379.842 30.6467ZM374.111 37.3831C374.942 38.3578 375.792 38.8452 376.664 38.8452C377.542 38.8379 378.377 38.3687 379.17 37.4373C379.968 36.4986 380.371 35.5058 380.377 34.4589C380.389 33.4193 379.984 32.4156 379.16 31.4483L377.999 30.0836L372.951 36.0184L374.111 37.3831Z" fill="#E8E6E3"/>
</g>
</svg>
